<svg xmlns="http://www.w3.org/2000/svg" version="1.1" xmlns:xlink="http://www.w3.org/1999/xlink" viewBox="0 0 200 200"><rect width="200" height="200" fill="url('#gradient')"></rect><defs><linearGradient id="gradient" gradientTransform="rotate(346 0.5 0.5)"><stop offset="0%" stop-color="#e3af29"></stop><stop offset="100%" stop-color="#db3d08"></stop></linearGradient></defs><g><g fill="#2c3431" transform="matrix(4.83170808430324,0,0,4.83170808430324,18.681300373113388,134.35281999098424)" stroke="#7d836e" stroke-width="0.2"><path d="M4.73-14.22L4.73 0L1.31 0L1.31-14.22L4.73-14.22ZM18.99-14.22L18.99 0L15.59 0L15.59-5.94L10.54-5.94L10.54 0L7.11 0L7.11-14.22L10.54-14.22L10.54-8.57L15.59-8.57L15.59-14.22L18.99-14.22ZM26.78-4.82L24.59-4.82L24.59 0L21.16 0L21.16-14.22L26.84-14.22Q28.47-14.22 29.72-13.62Q30.98-13.02 31.67-11.91Q32.35-10.80 32.35-9.39L32.35-9.39Q32.35-7.31 30.86-6.07Q29.38-4.82 26.78-4.82L26.78-4.82ZM24.59-11.57L24.59-7.47L26.84-7.47Q27.83-7.47 28.35-7.97Q28.88-8.47 28.88-9.38L28.88-9.38Q28.88-10.37 28.34-10.97Q27.80-11.56 26.88-11.57L26.88-11.57L24.59-11.57Z"></path></g></g></svg>